<?xml version="1.0" encoding="UTF-8"?>
<svg width="100px" height="100px" viewBox="0 0 100 100" version="1.1" xmlns="http://www.w3.org/2000/svg" xmlns:xlink="http://www.w3.org/1999/xlink" style="background: #FFFFFF;">
    <!-- Generator: Sketch 49.3 (51167) - http://www.bohemiancoding.com/sketch -->
    <title>Artboard</title>
    <desc>Created with Sketch.</desc>
    <defs></defs>
    <g id="Artboard" stroke="none" stroke-width="1" fill="none" fill-rule="evenodd">
        <g id="trd-logo" transform="translate(23.000000, 8.000000)" fill-rule="nonzero">
            <g id="Group" fill="#231F20">
                <polygon id="Shape" points="10.1337313 4.33230769 10.1337313 23.6430769 5.08522388 23.6430769 5.08522388 4.33230769 0 4.33230769 0 0.0246153846 15.1761194 0.0246153846 15.1761194 4.33230769"></polygon>
                <polygon id="Shape" points="24.2879104 23.6430769 24.2879104 15.8892308 19.4964179 15.8892308 19.4964179 23.6430769 15.3658209 23.6430769 15.3658209 4.30153846 19.4964179 4.30153846 19.4964179 12.3015385 24.2879104 12.3015385 24.2879104 4.30153846 28.4185075 4.30153846 28.4185075 23.6430769"></polygon>
                <polygon id="Shape" points="29.8626866 23.6430769 29.8626866 4.30153846 40.5777612 4.30153846 40.5777612 7.78461538 33.9932836 7.78461538 33.9932836 12.0246154 38.5277612 12.0246154 38.5277612 15.1630769 33.9932836 15.1630769 33.9932836 20.0123077 40.5777612 20.0123077 40.5777612 23.6430769 29.8626866 23.6430769"></polygon>
            </g>
            <g id="Group-2" transform="translate(0.000000, 30.000000)" fill="#ED1C24">
                <path d="M12.9415909,23.7846154 C10.8920455,23.7846154 10.1127273,22.3630769 10.1127273,20.1661538 L10.1127273,16.2953846 C10.1127273,15.0646154 9.49909091,13.9876923 8.02636364,13.9876923 L5.29568182,13.9876923 L5.29568182,23.6430769 L0.233181818,23.6430769 L0.233181818,0 L8.73818182,0 C12.5611364,0 14.8745455,2.20307692 14.8745455,5.60615385 L14.8745455,8.19076923 C14.9929132,10.0930412 13.6755068,11.7841255 11.8063636,12.1292308 C13.6438069,12.519323 14.9573031,14.1472551 14.9543182,16.0307692 L14.9543182,19.8830769 C14.900765,20.7972603 15.2669358,21.6858276 15.9484091,22.2953846 L15.9484091,23.7846154 L12.9415909,23.7846154 Z M9.96545455,5.89538462 C9.96545455,4.72615385 9.46840909,3.98153846 8.16136364,3.98153846 L5.29568182,3.98153846 L5.29568182,10.4738462 L7.95272727,10.4738462 C9.25977273,10.4738462 9.97159091,9.79692308 9.97159091,8.38153846 L9.97159091,5.92 L9.96545455,5.89538462 Z" id="Shape"></path>
                <polygon id="Shape" points="17.3720455 23.6430769 17.3720455 4.30153846 28.1168182 4.30153846 28.1168182 7.78461538 21.5140909 7.78461538 21.5140909 12.0246154 26.0611364 12.0246154 26.0611364 15.1630769 21.5140909 15.1630769 21.5140909 20.0123077 28.1168182 20.0123077 28.1168182 23.6430769 17.3720455 23.6430769"></polygon>
                <path d="M38.1375,23.6430769 L37.3275,19.8092308 L33.3327273,19.8092308 L32.5227273,23.6430769 L28.6445455,23.6430769 L33.1609091,4.30153846 L37.7938636,4.30153846 L42.2795455,23.6430769 L38.1375,23.6430769 Z M35.4129545,9.67384615 L33.9340909,16.7323077 L36.7690909,16.7323077 L35.4129545,9.67384615 Z" id="Shape"></path>
                <polygon id="Shape" points="43.4086364 23.6430769 43.4086364 4.30153846 47.5506818 4.30153846 47.5506818 20.0676923 53.8956818 20.0676923 53.8956818 23.6369231 43.4086364 23.6369231"></polygon>
            </g>
            <g id="Group-3" transform="translate(0.000000, 60.000000)" fill="#231F20">
                <path d="M8.02752809,23.6430769 L0.11741573,23.6430769 L0.11741573,0 L8.02752809,0 C12.9713483,0 15.5853933,3.15692308 15.5853933,7.10153846 L15.5853933,16.8061538 C15.5977528,20.8 12.9466292,23.6430769 8.02752809,23.6430769 Z M10.4994382,7.21230769 C10.4994382,5.32923077 9.60955056,4.23384615 7.64438202,4.23384615 L5.22191011,4.23384615 L5.22191011,19.4153846 L7.64438202,19.4153846 C9.60337079,19.4153846 10.4994382,18.3138462 10.4994382,16.4307692 L10.4994382,7.2 L10.4994382,7.21230769 Z" id="Shape"></path>
                <polygon id="Shape" points="17.9831461 23.6430769 17.9831461 4.30153846 28.8039326 4.30153846 28.8039326 7.78461538 22.1544944 7.78461538 22.1544944 12.0246154 26.7213483 12.0246154 26.7213483 15.1630769 22.1421348 15.1630769 22.1421348 20.0123077 28.791573 20.0123077 28.791573 23.6430769 17.9831461 23.6430769"></polygon>
                <path d="M38.8893258,23.6430769 L38.0735955,19.8092308 L34.0505618,19.8092308 L33.2348315,23.6430769 L29.3292135,23.6430769 L33.8775281,4.30153846 L38.5432584,4.30153846 L43.0606742,23.6430769 L38.8893258,23.6430769 Z M36.1516854,9.67384615 L34.6623596,16.7323077 L37.5174157,16.7323077 L36.1516854,9.67384615 Z" id="Shape"></path>
                <polygon id="Shape" points="44.1977528 23.6430769 44.1977528 4.30153846 48.3505618 4.30153846 48.3505618 20.0676923 54.7342697 20.0676923 54.7342697 23.6369231 44.1977528 23.6369231"></polygon>
            </g>
        </g>
    </g>
</svg>