<svg xmlns="http://www.w3.org/2000/svg" viewBox="0 0 529.3 124.7"><style>.st0{fill:#231f20}</style><g id="Layer_1"><path class="st0" d="M38.7 25.1v64.4h-17V25.1h-17V10.7h50.9v14.5H38.7zM86 89.6V63.9H70v25.7H56.3v-64H70v26.5h16V25.5h13.7v64H86zm22.3 0v-64H144v11.5h-21.9v14h15.1v10.4h-15.1v16.1H144v12h-35.7z"/><path d="M195.5 90c-6.9 0-9.5-4.7-9.5-12.1V65.1c0-4.1-2.1-7.7-7-7.7h-9.1v32.2H153V10.7h28.4c12.8 0 20.5 7.3 20.5 18.7v8.5c0 6.4-3.1 11.3-10.2 13.1 7.1 1.7 10.5 7.6 10.5 13v13c0 3.7 1.2 6.2 3.3 8.1v5h-10zm-10-59.7c0-3.9-1.7-6.4-6-6.4h-9.6v21.7h8.9c4.4 0 6.8-2.3 6.8-7v-8.3zm24.4 59.3v-64h35.7v11.5h-21.9v14h15.1v10.4h-15.1v16.1h21.9v12h-35.7zm70.2 0l-2.7-12.7h-13.3l-2.7 12.7h-12.9l15-64H279l14.9 64h-13.8zm-9-46.3l-4.9 23.4h9.4l-4.5-23.4zm26.8 46.3v-64h13.7v52.2h21.1v11.8h-34.8z" fill="#c2d02f"/><path class="st0" d="M366.6 89.6h-26.3V10.7h26.3c16.3 0 25.1 10.5 25.1 23.7v32.5c0 13.2-8.8 22.7-25.1 22.7zm8.1-54.9c0-6.3-3-10-9.5-10h-8.1v50.7h8.1c6.5 0 9.5-3.7 9.5-10V34.7zM399 89.6v-64h35.7v11.5h-21.9v14h15.1v10.4h-15.1v16.1h21.9v12H399zm70.2 0l-2.7-12.7h-13.3l-2.7 12.7h-12.9l15-64H468l14.9 64h-13.7zm-9-46.3l-4.9 23.4h9.4l-4.5-23.4zM487 89.6v-64h13.7v52.2h21.1v11.8H487z"/><text transform="translate(56.044 118.746)" letter-spacing="2" font-size="25.968" font-family="FranklinGothic-Medium">TRI-STATE REAL ESTATE NEWS</text></g></svg>