<svg xmlns="http://www.w3.org/2000/svg" viewBox="0 0 529.3 124.7"><style>.st0{fill:#231f20}</style><g id="Layer_1"><path class="st0" d="M38 25.1v64.4H21.1V25.1H4V10.7h51v14.5H38zm47.4 64.5V63.9h-16v25.7H55.7v-64h13.7v26.5h16V25.5h13.7v64H85.4zm22.3 0v-64h35.7v11.5h-21.9v14h15.1v10.4h-15.1v16.1h21.9v12h-35.7z"/><path d="M194.9 90c-6.9 0-9.5-4.7-9.5-12.1V65.1c0-4.1-2.1-7.7-7-7.7h-9.1v32.2h-16.9V10.7h28.4c12.8 0 20.5 7.3 20.5 18.7v8.5c0 6.4-3.1 11.3-10.2 13.1 7.1 1.7 10.5 7.6 10.5 13v13c0 3.7 1.2 6.2 3.3 8.1v5h-10zm-10-59.7c0-3.9-1.7-6.4-6-6.4h-9.6v21.7h8.9c4.4 0 6.8-2.3 6.8-7v-8.3zm24.4 59.3v-64H245v11.5h-21.9v14h15.1v10.4h-15.1v16.1H245v12h-35.7zm70.2 0l-2.7-12.7h-13.3l-2.7 12.7H248l15-64h15.4l14.9 64h-13.8zm-9-46.3l-4.9 23.4h9.4l-4.5-23.4zm26.8 46.3v-64H311v52.2h21.1v11.8h-34.8z" fill="#eb2227"/><path class="st0" d="M365.9 89.6h-26.3V10.7h26.3c16.3 0 25.1 10.5 25.1 23.7v32.5c0 13.2-8.7 22.7-25.1 22.7zm8.2-54.9c0-6.3-3-10-9.5-10h-8.1v50.7h8.1c6.5 0 9.5-3.7 9.5-10V34.7zm24.3 54.9v-64H434v11.5h-21.9v14h15.1v10.4h-15.1v16.1H434v12h-35.6zm70.2 0l-2.7-12.7h-13.3l-2.7 12.7H437l15-64h15.4l14.9 64h-13.7zm-9.1-46.3l-4.9 23.4h9.4l-4.5-23.4zm26.9 46.3v-64h13.7v52.2h21.1v11.8h-34.8zm-355.7 29.6l-2.7-7.1h-4.4v7.1h-3.1V102h7.5c2.1 0 3.4.4 4.5 1.3.9.8 1.5 2 1.5 3.7 0 3.2-2.2 4.2-3.1 4.6l3 7.6h-3.2zm-7-9.6h3.9c1.5 0 3.3-.5 3.3-2.7 0-1.3-.9-2.5-3-2.5h-4.1v5.2zm15.4 9.6V102h11.1v2.6h-8v4.7h6.4v2.5h-6.4v4.8h8.1v2.7h-11.2zm29.2 0H165l-1.4-4.1H157l-1.3 4.1H153l5.7-17.2h3.8l5.8 17.2zm-5.5-6.6l-2.5-7.7-2.5 7.7h5zm9.5 6.6V102h3.3v14.4h7.3v2.8h-10.6zm22.2 0V102h11.1v2.6h-8v4.7h6.4v2.5h-6.4v4.8h8.1v2.7h-11.2zm17-4.8c.2.6.5 1.7 2 2.2.9.3 1.6.3 2.1.3 2.9 0 3.4-1.5 3.4-2.3 0-1.6-1.3-2-2.1-2.2l-3.8-1c-2.5-.6-3.7-2.4-3.7-4.6 0-3.3 2.6-5.1 6.1-5.1 1.7 0 3.4.4 4.7 1.5 1 .8 1.3 1.7 1.4 2.2l-2.9.7c-.2-.6-.7-2-3.2-2-2.4 0-3 1.3-3 2.1 0 1.3 1.5 1.8 2.4 2.1l2.9.7c1.5.4 4.5 1.2 4.5 4.9 0 3.4-2.9 5.4-6.8 5.4-2.1 0-3.9-.5-5.3-1.6-1.2-.9-1.5-2-1.7-2.8l3-.5zm18 4.8v-14.6H225V102h12.5v2.7h-4.6v14.6h-3.4zm23.5 0h-3.3l-1.4-4.1h-6.6l-1.3 4.1h-2.7l5.7-17.2h3.8l5.8 17.2zm-5.5-6.6l-2.5-7.7-2.5 7.7h5zm10.5 6.6v-14.6h-4.6V102h12.5v2.7h-4.6v14.6H258zm11.6 0V102h11.1v2.6h-8v4.7h6.4v2.5h-6.4v4.8h8.1v2.7h-11.2zm36.3 0H303l-6.7-11c-.2-.3-.8-1.6-1-1.9v12.9h-2.5V102h3.4l6 10.1c.1.1.5.9 1.1 2V102h2.5v17.2zm5.6 0V102h11.1v2.6h-8v4.7h6.4v2.5h-6.4v4.8h8.1v2.7h-11.2zm31.8 0H340l-3.4-12.6-3.1 12.6h-3.2l-4.7-17.2h3.3l3.3 12.6 3.1-12.6h3.1l3.4 12.6 3.3-12.6h2.7l-4.5 17.2zm9.8-4.8c.2.6.5 1.7 2 2.2.9.3 1.6.3 2.1.3 2.9 0 3.4-1.5 3.4-2.3 0-1.6-1.3-2-2.1-2.2l-3.8-1c-2.5-.6-3.7-2.4-3.7-4.6 0-3.3 2.6-5.1 6.1-5.1 1.7 0 3.4.4 4.7 1.5 1 .8 1.3 1.7 1.4 2.2l-2.9.7c-.2-.6-.7-2-3.2-2-2.4 0-3 1.3-3 2.1 0 1.3 1.5 1.8 2.4 2.1l2.9.7c1.5.4 4.5 1.2 4.5 4.9 0 3.4-2.9 5.4-6.8 5.4-2.1 0-3.9-.5-5.3-1.6-1.2-.9-1.5-2-1.7-2.8l3-.5z"/></g></svg>