<svg version="1.1" id="trd-national-logo" xmlns="http://www.w3.org/2000/svg" x="0" y="0" viewBox="0 0 677.1 146.7" xml:space="preserve"><style>.st0{fill:#231f20}</style><path class="st0" d="M46.9 25.2V109h-22V25.2H2.7V6.4h66.2v18.8h-22zm61.6 83.7V75.6H87.7V109H69.8V25.7h17.9v34.5h20.8V25.7h17.9v83.2h-17.9zm28.8 0V25.7h46.4v15h-28.5v18.2h19.6v13.5h-19.6v20.9h28.5v15.6h-46.4z"/><path d="M251.4 109.6c-8.9 0-12.3-6.2-12.3-15.7V77.1c0-5.4-2.8-10-9.1-10h-11.9V109h-22V6.4h37c16.6 0 26.6 9.5 26.6 24.3v11.1c0 8.3-4 14.6-13.2 17.1 9.2 2.2 13.7 9.9 13.7 16.9v16.8c0 4.8 1.5 8 4.3 10.5v6.5h-13.1zm-13-77.7c0-5.1-2.2-8.3-7.9-8.3H218v28.2h11.6c5.7 0 8.8-2.9 8.8-9.1V31.9zm31.7 77V25.7h46.4v15H288v18.2h19.6v13.5H288v20.9h28.5v15.6h-46.4zm91.3 0l-3.5-16.5h-17.2l-3.5 16.5h-16.8l19.5-83.2h20l19.4 83.2h-17.9zm-11.8-60.1l-6.4 30.4h12.2l-5.8-30.4zm34.8 60.1V25.7h17.9v67.9h27.4V109h-45.3z" fill="#ec1c24"/><path class="st0" d="M473.1 108.9h-34.2V6.4h34.2c21.3 0 32.6 13.7 32.6 30.8v42.2c0 17.2-11.4 29.5-32.6 29.5zm10.6-71.3c0-8.2-3.8-12.9-12.3-12.9h-10.5v65.9h10.5c8.5 0 12.3-4.8 12.3-12.9V37.6zm31.6 71.3V25.7h46.4v15h-28.5v18.2h19.6v13.5h-19.6v20.9h28.5v15.6h-46.4zm91.2 0L603 92.4h-17.2l-3.5 16.5h-16.8L585 25.7h20l19.4 83.2h-17.9zm-11.7-60.1l-6.4 30.4h12.2l-5.8-30.4zm34.7 60.1V25.7h17.9v67.9h27.4V109h-45.3z"/><path d="M178.5 143.4l-4.2-9.8h-6.2v9.8h-2.8v-22.5h8.4c1.8 0 3.6.2 5.1 1.4 1.5 1.2 2.4 3 2.4 4.9 0 2.7-1.6 5.1-4.2 5.8l4.4 10.4h-2.9zm-5.1-12c1.5 0 2.8-.1 3.9-1.2.8-.8 1.2-1.9 1.2-3 0-1.3-.5-2.4-1.6-3.1-1-.7-1.9-.7-3.1-.7h-5.6v8h5.2zm29.3 12h-14.6v-22.5h14.3v2.4H191v7.2h9.1v2.3H191v8.2h11.8v2.4zm21.4 0h-2.9l-2.3-6.6h-8.3l-2 6.6h-2.4l7.3-22.5h3.3l7.3 22.5zm-9.2-19.5l-3.5 10.8h6.9l-3.4-10.8zm27.8 19.5h-13.3v-22.5h2.8v20h10.5v2.5zm28.8 0h-14.6v-22.5h14.3v2.4h-11.4v7.2h9.1v2.3h-9.1v8.2h11.8v2.4zm6.5-6.6c.9 3.1 3.5 4.6 6.7 4.6 1.3 0 3-.3 4-1.1.9-.7 1.4-1.8 1.4-2.9 0-2.3-1.9-3.2-3.8-3.7l-3.7-.9c-1.5-.4-2.9-.7-4.1-1.8-1.2-1.1-1.8-2.6-1.8-4.2 0-4.3 3.7-6.2 7.7-6.2 3.8 0 6.8 1.9 8 5.5l-2.6.7c-.5-2.5-3.1-4-5.5-4-2.1 0-4.8 1.1-4.8 3.6s2 3.1 4.1 3.6l3.4.8c1.5.3 3 .8 4.1 1.7 1.4 1.2 2.1 2.7 2.1 4.5 0 2-.9 3.9-2.5 5.1-1.6 1.2-3.8 1.6-5.9 1.6-4.6 0-7.6-2-9.1-6.4l2.3-.5zm27.7 6.6h-2.8v-20.1h-6.4v-2.5h15.6v2.5h-6.4v20.1zm26.5 0h-2.9l-2.3-6.6h-8.3l-2 6.6h-2.4l7.3-22.5h3.3l7.3 22.5zm-9.3-19.5l-3.5 10.8h6.9l-3.4-10.8zm19 19.5h-2.8v-20.1h-6.4v-2.5h15.6v2.5h-6.4v20.1zm26.5 0h-14.6v-22.5h14.3v2.4h-11.4v7.2h9.1v2.3h-9.1v8.2h11.8v2.4zm31.2 0h-2.8l-11.5-19.6v19.6H383v-22.5h3.5l10.7 18.4v-18.4h2.4v22.5zm22.2 0h-14.6v-22.5h14.3v2.4H410v7.2h9.1v2.3H410v8.2h11.8v2.4zm24.5 0h-2.8l-4.9-17.5-4.6 17.5h-2.9l-5.7-22.5h2.9l4.5 18.3h.1l4.8-18.3h2.3l5.1 18.3h.1l4.2-18.3h2.5l-5.6 22.5zm12-6.6c.9 3.1 3.5 4.6 6.7 4.6 1.3 0 3-.3 4-1.1.9-.7 1.4-1.8 1.4-2.9 0-2.3-1.9-3.2-3.8-3.7l-3.7-.9c-1.5-.4-2.9-.7-4.1-1.8-1.2-1.1-1.8-2.6-1.8-4.2 0-4.3 3.7-6.2 7.7-6.2 3.8 0 6.8 1.9 8 5.5l-2.6.7c-.5-2.5-3.1-4-5.5-4-2.1 0-4.8 1.1-4.8 3.6s2 3.1 4.1 3.6l3.4.8c1.5.3 3 .8 4.1 1.7 1.4 1.2 2.1 2.7 2.1 4.5 0 2-.9 3.9-2.5 5.1-1.6 1.2-3.8 1.6-5.9 1.6-4.6 0-7.6-2-9.1-6.4l2.3-.5z" stroke="#231f20" stroke-width="1.5" stroke-miterlimit="10" fill="#231f20"/></svg>