<?xml version="1.0" encoding="utf-8"?>
<!-- Generator: Adobe Illustrator 22.1.0, SVG Export Plug-In . SVG Version: 6.00 Build 0)  -->
<svg version="1.1" xmlns="http://www.w3.org/2000/svg" xmlns:xlink="http://www.w3.org/1999/xlink" x="0px" y="0px"
	 viewBox="0 0 529.3 124.7" style="enable-background:new 0 0 529.3 124.7;" xml:space="preserve">
<style type="text/css">
	.st0{fill:#231F20;}
	.st1{fill:#EB2227;}
	.st2{fill:#C2D02F;}
</style>
<g id="Layer_1">
	<g>
		<path class="st0" d="M38,25.1v64.4H21.1V25.1H4V10.7H55v14.5H38z"/>
	</g>
	<g>
		<path class="st0" d="M85.4,89.6V63.9h-16v25.7H55.7v-64h13.7v26.5h16V25.5h13.7v64H85.4z"/>
		<path class="st0" d="M107.7,89.6v-64h35.7v11.5h-21.9v14h15.1v10.4h-15.1v16.1h21.9v12H107.7z"/>
	</g>
	<g>
		<path class="st1" d="M194.9,90c-6.9,0-9.5-4.7-9.5-12.1V65.1c0-4.1-2.1-7.7-7-7.7h-9.1v32.2h-16.9V10.7h28.4
			c12.8,0,20.5,7.3,20.5,18.7v8.5c0,6.4-3.1,11.3-10.2,13.1c7.1,1.7,10.5,7.6,10.5,13V77c0,3.7,1.2,6.2,3.3,8.1v5H194.9z
			 M184.9,30.3c0-3.9-1.7-6.4-6-6.4h-9.6v21.7h8.9c4.4,0,6.8-2.3,6.8-7V30.3z"/>
	</g>
	<g>
		<path class="st1" d="M209.3,89.6v-64H245v11.5h-21.9v14h15.1v10.4h-15.1v16.1H245v12H209.3z"/>
		<path class="st1" d="M279.5,89.6l-2.7-12.7h-13.3l-2.7,12.7H248l15-64h15.4l14.9,64H279.5z M270.5,43.3l-4.9,23.4h9.4L270.5,43.3z
			"/>
		<path class="st1" d="M297.3,89.6v-64H311v52.2h21.1v11.8H297.3z"/>
	</g>
	<g>
		<path class="st0" d="M365.9,89.6h-26.3V10.7h26.3c16.3,0,25.1,10.5,25.1,23.7v32.5C391,80.1,382.3,89.6,365.9,89.6z M374.1,34.7
			c0-6.3-3-10-9.5-10h-8.1v50.7h8.1c6.5,0,9.5-3.7,9.5-10V34.7z"/>
	</g>
	<g>
		<path class="st0" d="M398.4,89.6v-64H434v11.5h-21.9v14h15.1v10.4h-15.1v16.1H434v12H398.4z"/>
		<path class="st0" d="M468.6,89.6l-2.7-12.7h-13.3l-2.7,12.7H437l15-64h15.4l14.9,64H468.6z M459.5,43.3l-4.9,23.4h9.4L459.5,43.3z
			"/>
		<path class="st0" d="M486.4,89.6v-64h13.7v52.2h21.1v11.8H486.4z"/>
	</g>
	<g>
		<path class="st0" d="M130.7,119.2l-2.7-7.1h-4.4v7.1h-3.1V102h7.5c2.1,0,3.4,0.4,4.5,1.3c0.9,0.8,1.5,2,1.5,3.7
			c0,3.2-2.2,4.2-3.1,4.6l3,7.6H130.7z M123.7,109.6h3.9c1.5,0,3.3-0.5,3.3-2.7c0-1.3-0.9-2.5-3-2.5h-4.1V109.6z"/>
		<path class="st0" d="M139.1,119.2V102h11.1v2.6h-8v4.7h6.4v2.5h-6.4v4.8h8.1v2.7H139.1z"/>
		<path class="st0" d="M168.3,119.2H165l-1.4-4.1H157l-1.3,4.1H153l5.7-17.2h3.8L168.3,119.2z M162.8,112.6l-2.5-7.7l-2.5,7.7H162.8
			z"/>
		<path class="st0" d="M172.3,119.2V102h3.3v14.4h7.3v2.8H172.3z"/>
		<path class="st0" d="M194.5,119.2V102h11.1v2.6h-8v4.7h6.4v2.5h-6.4v4.8h8.1v2.7H194.5z"/>
		<path class="st0" d="M211.5,114.4c0.2,0.6,0.5,1.7,2,2.2c0.9,0.3,1.6,0.3,2.1,0.3c2.9,0,3.4-1.5,3.4-2.3c0-1.6-1.3-2-2.1-2.2
			l-3.8-1c-2.5-0.6-3.7-2.4-3.7-4.6c0-3.3,2.6-5.1,6.1-5.1c1.7,0,3.4,0.4,4.7,1.5c1,0.8,1.3,1.7,1.4,2.2l-2.9,0.7
			c-0.2-0.6-0.7-2-3.2-2c-2.4,0-3,1.3-3,2.1c0,1.3,1.5,1.8,2.4,2.1l2.9,0.7c1.5,0.4,4.5,1.2,4.5,4.9c0,3.4-2.9,5.4-6.8,5.4
			c-2.1,0-3.9-0.5-5.3-1.6c-1.2-0.9-1.5-2-1.7-2.8L211.5,114.4z"/>
		<path class="st0" d="M229.5,119.2v-14.6H225V102h12.5v2.7h-4.6v14.6H229.5z"/>
		<path class="st0" d="M253,119.2h-3.3l-1.4-4.1h-6.6l-1.3,4.1h-2.7l5.7-17.2h3.8L253,119.2z M247.5,112.6l-2.5-7.7l-2.5,7.7H247.5z
			"/>
		<path class="st0" d="M258,119.2v-14.6h-4.6V102h12.5v2.7h-4.6v14.6H258z"/>
		<path class="st0" d="M269.6,119.2V102h11.1v2.6h-8v4.7h6.4v2.5h-6.4v4.8h8.1v2.7H269.6z"/>
		<path class="st0" d="M305.9,119.2H303l-6.7-11c-0.2-0.3-0.8-1.6-1-1.9v12.9h-2.5V102h3.4l6,10.1c0.1,0.1,0.5,0.9,1.1,2V102h2.5
			V119.2z"/>
		<path class="st0" d="M311.5,119.2V102h11.1v2.6h-8v4.7h6.4v2.5h-6.4v4.8h8.1v2.7H311.5z"/>
		<path class="st0" d="M343.3,119.2h-3.3l-3.4-12.6l-3.1,12.6h-3.2l-4.7-17.2h3.3l3.3,12.6l3.1-12.6h3.1l3.4,12.6l3.3-12.6h2.7
			L343.3,119.2z"/>
		<path class="st0" d="M353.1,114.4c0.2,0.6,0.5,1.7,2,2.2c0.9,0.3,1.6,0.3,2.1,0.3c2.9,0,3.4-1.5,3.4-2.3c0-1.6-1.3-2-2.1-2.2
			l-3.8-1c-2.5-0.6-3.7-2.4-3.7-4.6c0-3.3,2.6-5.1,6.1-5.1c1.7,0,3.4,0.4,4.7,1.5c1,0.8,1.3,1.7,1.4,2.2l-2.9,0.7
			c-0.2-0.6-0.7-2-3.2-2c-2.4,0-3,1.3-3,2.1c0,1.3,1.5,1.8,2.4,2.1l2.9,0.7c1.5,0.4,4.5,1.2,4.5,4.9c0,3.4-2.9,5.4-6.8,5.4
			c-2.1,0-3.9-0.5-5.3-1.6c-1.2-0.9-1.5-2-1.7-2.8L353.1,114.4z"/>
	</g>
</g>
<g id="Layer_2">
</g>
</svg>
