<?xml version="1.0" encoding="utf-8"?>
<!-- Generator: Adobe Illustrator 19.2.1, SVG Export Plug-In . SVG Version: 6.00 Build 0)  -->
<svg version="1.1" id="Layer_1" xmlns="http://www.w3.org/2000/svg" xmlns:xlink="http://www.w3.org/1999/xlink" x="0px" y="0px"
	 viewBox="0 0 529.3 124.7" style="enable-background:new 0 0 529.3 124.7;" xml:space="preserve">
<style type="text/css">
	.st0{fill:#231F20;}
	.st1{fill:#EB2227;}
	.st2{fill:#C0CD30;}
	.st3{font-family:'FranklinGothic-Medium';}
	.st4{font-size:18px;}
</style>
<g>
	<path class="st0" d="M38,25.1v64.4H21.1V25.1H4V10.7H55v14.5H38z"/>
</g>
<g>
	<path class="st0" d="M85.4,89.6V63.9h-16v25.7H55.7v-64h13.7v26.5h16V25.5h13.7v64H85.4z"/>
	<path class="st0" d="M107.7,89.6v-64h35.7v11.5h-21.9v14h15.1v10.4h-15.1v16.1h21.9v12H107.7z"/>
</g>
<g>
	<g>
		<path class="st2" d="M194.9,90c-6.9,0-9.5-4.7-9.5-12.1V65.1c0-4.1-2.1-7.7-7-7.7h-9.1v32.2h-16.9V10.7h28.4
			c12.8,0,20.5,7.3,20.5,18.7v8.5c0,6.4-3.1,11.3-10.2,13.1c7.1,1.7,10.5,7.6,10.5,13V77c0,3.7,1.2,6.2,3.3,8.1v5H194.9z
			 M184.9,30.3c0-3.9-1.7-6.4-6-6.4h-9.6v21.7h8.9c4.4,0,6.8-2.3,6.8-7V30.3z"/>
	</g>
	<g>
		<path class="st2" d="M209.3,89.6v-64H245v11.5h-21.9v14h15.1v10.4h-15.1v16.1H245v12H209.3z"/>
		<path class="st2" d="M279.5,89.6l-2.7-12.7h-13.3l-2.7,12.7H248l15-64h15.4l14.9,64H279.5z M270.5,43.3l-4.9,23.4h9.4L270.5,43.3z
			"/>
		<path class="st2" d="M297.3,89.6v-64H311v52.2h21.1v11.8H297.3z"/>
	</g>
</g>
<g>
	<path class="st0" d="M365.9,89.6h-26.3V10.7h26.3c16.3,0,25.1,10.5,25.1,23.7v32.5C391,80.1,382.3,89.6,365.9,89.6z M374.1,34.7
		c0-6.3-3-10-9.5-10h-8.1v50.7h8.1c6.5,0,9.5-3.7,9.5-10V34.7z"/>
</g>
<g>
	<path class="st0" d="M398.4,89.6v-64H434v11.5h-21.9v14h15.1v10.4h-15.1v16.1H434v12H398.4z"/>
	<path class="st0" d="M468.6,89.6l-2.7-12.7h-13.3l-2.7,12.7H437l15-64h15.4l14.9,64H468.6z M459.5,43.3l-4.9,23.4h9.4L459.5,43.3z"
		/>
	<path class="st0" d="M486.4,89.6v-64h13.7v52.2h21.1v11.8H486.4z"/>
</g>
<text transform="matrix(1 0 0 1 110.1211 115.3877)" class="st3 st4">TRI-STATE REAL ESTATE NEWS</text>
</svg>
