<?xml version="1.0" encoding="utf-8"?>
<!-- Generator: Adobe Illustrator 22.1.0, SVG Export Plug-In . SVG Version: 6.00 Build 0)  -->
<svg version="1.1" xmlns="http://www.w3.org/2000/svg" xmlns:xlink="http://www.w3.org/1999/xlink" x="0px" y="0px"
	 viewBox="0 0 529.3 124.7" style="enable-background:new 0 0 529.3 124.7;" xml:space="preserve">
<style type="text/css">
	.st0{fill:#231F20;}
	.st1{fill:#EB2227;}
	.st2{fill:#C2D02F;}
	.st3{font-family:'FranklinGothic-Medium';}
	.st4{font-size:25.968px;}
	.st5{letter-spacing:2;}
</style>
<g id="Layer_1">
	<g>
		<g>
			<path class="st0" d="M38.7,25.1v64.4H21.7V25.1H4.7V10.7h50.9v14.5H38.7z"/>
		</g>
		<g>
			<path class="st0" d="M86,89.6V63.9H70v25.7H56.3v-64H70v26.5h16V25.5h13.7v64H86z"/>
			<path class="st0" d="M108.3,89.6v-64H144v11.5h-21.9v14h15.1v10.4h-15.1v16.1H144v12H108.3z"/>
		</g>
		<g>
			<g>
				<path class="st2" d="M195.5,90c-6.9,0-9.5-4.7-9.5-12.1V65.1c0-4.1-2.1-7.7-7-7.7h-9.1v32.2H153V10.7h28.4
					c12.8,0,20.5,7.3,20.5,18.7v8.5c0,6.4-3.1,11.3-10.2,13.1c7.1,1.7,10.5,7.6,10.5,13V77c0,3.7,1.2,6.2,3.3,8.1v5H195.5z
					 M185.5,30.3c0-3.9-1.7-6.4-6-6.4h-9.6v21.7h8.9c4.4,0,6.8-2.3,6.8-7V30.3z"/>
			</g>
			<g>
				<path class="st2" d="M209.9,89.6v-64h35.7v11.5h-21.9v14h15.1v10.4h-15.1v16.1h21.9v12H209.9z"/>
				<path class="st2" d="M280.1,89.6l-2.7-12.7h-13.3l-2.7,12.7h-12.9l15-64H279l14.9,64H280.1z M271.1,43.3l-4.9,23.4h9.4
					L271.1,43.3z"/>
				<path class="st2" d="M297.9,89.6v-64h13.7v52.2h21.1v11.8H297.9z"/>
			</g>
		</g>
		<g>
			<path class="st0" d="M366.6,89.6h-26.3V10.7h26.3c16.3,0,25.1,10.5,25.1,23.7v32.5C391.7,80.1,382.9,89.6,366.6,89.6z
				 M374.7,34.7c0-6.3-3-10-9.5-10h-8.1v50.7h8.1c6.5,0,9.5-3.7,9.5-10V34.7z"/>
		</g>
		<g>
			<path class="st0" d="M399,89.6v-64h35.7v11.5h-21.9v14h15.1v10.4h-15.1v16.1h21.9v12H399z"/>
			<path class="st0" d="M469.2,89.6l-2.7-12.7h-13.3l-2.7,12.7h-12.9l15-64H468l14.9,64H469.2z M460.2,43.3l-4.9,23.4h9.4
				L460.2,43.3z"/>
			<path class="st0" d="M487,89.6v-64h13.7v52.2h21.1v11.8H487z"/>
		</g>
	</g>
	<text transform="matrix(1 0 0 1 56.0438 118.7458)" class="st3 st4 st5">TRI-STATE REAL ESTATE NEWS</text>
</g>
<g id="Layer_2">
</g>
</svg>
