<?xml version="1.0" encoding="utf-8"?>
<svg version="1.1" id="trd-national-logo" xmlns="http://www.w3.org/2000/svg" xmlns:xlink="http://www.w3.org/1999/xlink" x="0px" y="0px" viewBox="0 0 677.1 146.7" xml:space="preserve">
<style type="text/css">
	.st0{fill:#231F20;}
	.st1{fill:#EC1C24;}
	.st2{fill:#231F20;stroke:#231F20;stroke-width:1.5;stroke-miterlimit:10;}
</style>
<g>
	<path class="st0" d="M46.9,25.2v83.8h-22V25.2H2.7V6.4h66.2v18.8H46.9z"/>
</g>
<g>
	<path class="st0" d="M108.5,108.9V75.6H87.7v33.4H69.8V25.7h17.9v34.5h20.8V25.7h17.9v83.2H108.5z"/>
	<path class="st0" d="M137.3,108.9V25.7h46.4v15h-28.5v18.2h19.6v13.5h-19.6v20.9h28.5v15.6H137.3z"/>
</g>
<g>
	<path class="st1" d="M251.4,109.6c-8.9,0-12.3-6.2-12.3-15.7V77.1c0-5.4-2.8-10-9.1-10h-11.9v41.9h-22V6.4h37
		c16.6,0,26.6,9.5,26.6,24.3v11.1c0,8.3-4,14.6-13.2,17.1c9.2,2.2,13.7,9.9,13.7,16.9v16.8c0,4.8,1.5,8,4.3,10.5v6.5H251.4z
		 M238.4,31.9c0-5.1-2.2-8.3-7.9-8.3h-12.5v28.2h11.6c5.7,0,8.8-2.9,8.8-9.1V31.9z"/>
</g>
<g>
	<path class="st1" d="M270.1,108.9V25.7h46.4v15H288v18.2h19.6v13.5H288v20.9h28.5v15.6H270.1z"/>
	<path class="st1" d="M361.4,108.9l-3.5-16.5h-17.2l-3.5,16.5h-16.8l19.5-83.2h20l19.4,83.2H361.4z M349.6,48.8l-6.4,30.4h12.2
		L349.6,48.8z"/>
	<path class="st1" d="M384.4,108.9V25.7h17.9v67.9h27.4v15.4H384.4z"/>
</g>
<g>
	<path class="st0" d="M473.1,108.9h-34.2V6.4h34.2c21.3,0,32.6,13.7,32.6,30.8v42.2C505.7,96.6,494.3,108.9,473.1,108.9z
		 M483.7,37.6c0-8.2-3.8-12.9-12.3-12.9h-10.5v65.9h10.5c8.5,0,12.3-4.8,12.3-12.9V37.6z"/>
</g>
<g>
	<path class="st0" d="M515.3,108.9V25.7h46.4v15h-28.5v18.2h19.6v13.5h-19.6v20.9h28.5v15.6H515.3z"/>
	<path class="st0" d="M606.5,108.9L603,92.4h-17.2l-3.5,16.5h-16.8L585,25.7h20l19.4,83.2H606.5z M594.8,48.8l-6.4,30.4h12.2
		L594.8,48.8z"/>
	<path class="st0" d="M629.5,108.9V25.7h17.9v67.9h27.4v15.4H629.5z"/>
</g>
<g>
	<path class="st2" d="M178.5,143.4l-4.2-9.8h-6.2v9.8h-2.8v-22.5h8.4c1.8,0,3.6,0.2,5.1,1.4c1.5,1.2,2.4,3,2.4,4.9
		c0,2.7-1.6,5.1-4.2,5.8l4.4,10.4H178.5z M173.4,131.4c1.5,0,2.8-0.1,3.9-1.2c0.8-0.8,1.2-1.9,1.2-3c0-1.3-0.5-2.4-1.6-3.1
		c-1-0.7-1.9-0.7-3.1-0.7h-5.6v8H173.4z"/>
	<path class="st2" d="M202.7,143.4h-14.6v-22.5h14.3v2.4h-11.4v7.2h9.1v2.3h-9.1v8.2h11.8V143.4z"/>
	<path class="st2" d="M224.1,143.4h-2.9l-2.3-6.6h-8.3l-2,6.6h-2.4l7.3-22.5h3.3L224.1,143.4z M214.9,123.9l-3.5,10.8h6.9
		L214.9,123.9z"/>
	<path class="st2" d="M242.7,143.4h-13.3v-22.5h2.8v20h10.5V143.4z"/>
</g>
<g>
	<path class="st2" d="M271.5,143.4h-14.6v-22.5h14.3v2.4h-11.4v7.2h9.1v2.3h-9.1v8.2h11.8V143.4z"/>
	<path class="st2" d="M278,136.8c0.9,3.1,3.5,4.6,6.7,4.6c1.3,0,3-0.3,4-1.1c0.9-0.7,1.4-1.8,1.4-2.9c0-2.3-1.9-3.2-3.8-3.7
		l-3.7-0.9c-1.5-0.4-2.9-0.7-4.1-1.8c-1.2-1.1-1.8-2.6-1.8-4.2c0-4.3,3.7-6.2,7.7-6.2c3.8,0,6.8,1.9,8,5.5l-2.6,0.7
		c-0.5-2.5-3.1-4-5.5-4c-2.1,0-4.8,1.1-4.8,3.6c0,2.5,2,3.1,4.1,3.6l3.4,0.8c1.5,0.3,3,0.8,4.1,1.7c1.4,1.2,2.1,2.7,2.1,4.5
		c0,2-0.9,3.9-2.5,5.1c-1.6,1.2-3.8,1.6-5.9,1.6c-4.6,0-7.6-2-9.1-6.4L278,136.8z"/>
	<path class="st2" d="M305.7,143.4h-2.8v-20.1h-6.4v-2.5h15.6v2.5h-6.4V143.4z"/>
	<path class="st2" d="M332.2,143.4h-2.9l-2.3-6.6h-8.3l-2,6.6h-2.4l7.3-22.5h3.3L332.2,143.4z M322.9,123.9l-3.5,10.8h6.9
		L322.9,123.9z"/>
	<path class="st2" d="M341.9,143.4h-2.8v-20.1h-6.4v-2.5h15.6v2.5h-6.4V143.4z"/>
	<path class="st2" d="M368.4,143.4h-14.6v-22.5h14.3v2.4h-11.4v7.2h9.1v2.3h-9.1v8.2h11.8V143.4z"/>
</g>
<g>
	<path class="st2" d="M399.6,143.4h-2.8l-11.5-19.6v19.6H383v-22.5h3.5l10.7,18.4v-18.4h2.4V143.4z"/>
	<path class="st2" d="M421.8,143.4h-14.6v-22.5h14.3v2.4H410v7.2h9.1v2.3H410v8.2h11.8V143.4z"/>
	<path class="st2" d="M446.3,143.4h-2.8l-4.9-17.5l-4.6,17.5h-2.9l-5.7-22.5h2.9l4.5,18.3h0.1l4.8-18.3h2.3l5.1,18.3h0.1l4.2-18.3 h2.5L446.3,143.4z"/>
	<path class="st2" d="M458.3,136.8c0.9,3.1,3.5,4.6,6.7,4.6c1.3,0,3-0.3,4-1.1c0.9-0.7,1.4-1.8,1.4-2.9c0-2.3-1.9-3.2-3.8-3.7
		l-3.7-0.9c-1.5-0.4-2.9-0.7-4.1-1.8c-1.2-1.1-1.8-2.6-1.8-4.2c0-4.3,3.7-6.2,7.7-6.2c3.8,0,6.8,1.9,8,5.5l-2.6,0.7
		c-0.5-2.5-3.1-4-5.5-4c-2.1,0-4.8,1.1-4.8,3.6c0,2.5,2,3.1,4.1,3.6l3.4,0.8c1.5,0.3,3,0.8,4.1,1.7c1.4,1.2,2.1,2.7,2.1,4.5
		c0,2-0.9,3.9-2.5,5.1c-1.6,1.2-3.8,1.6-5.9,1.6c-4.6,0-7.6-2-9.1-6.4L458.3,136.8z"/>
</g>
</svg>
