<?xml version="1.0" encoding="utf-8"?>
<svg version="1.1" id="trd-national-logo" xmlns="http://www.w3.org/2000/svg" xmlns:xlink="http://www.w3.org/1999/xlink" x="0px" y="0px" viewBox="0 0 573.7 133.3" style="enable-background:new 0 0 573.7 133.3;" xml:space="preserve">
<style type="text/css">
	.st0{fill:#231F20;}
	.st1{fill:#EC1C24;}
</style>
<path class="st0" d="M570.5,94.5V81.4h-23.4V23.3h-15.3v71.2H570.5z M507.4,69.1H497l5.5-26L507.4,69.1z M527.8,94.5l-16.6-71.2
	h-17.1l-16.7,71.2h14.3l3-14.1h14.8l3,14.1H527.8z M475.6,94.5V81.1h-24.4V63.3H468V51.7h-16.8V36.1h24.4V23.3h-39.7v71.2H475.6z
	 M409.2,67.8c0,7-3.3,11.1-10.5,11.1h-9V22.5h9c7.2,0,10.5,4.1,10.5,11.1V67.8z M428,69.2V33.1c0-14.6-9.7-26.3-27.9-26.3h-29.2
	v87.7h29.2C418.3,94.5,428,84,428,69.2"/>
<path class="st1" d="M363.6,94.5V81.4h-23.4V23.3h-15.3v71.2H363.6z M300.6,69.1h-10.5l5.5-26L300.6,69.1z M320.9,94.5l-16.6-71.2
	h-17.1l-16.7,71.2h14.3l3-14.1h14.8l3,14.1H320.9z M268.7,94.5V81.1h-24.4V63.3h16.8V51.7h-16.8V36.1h24.4V23.3H229v71.2H268.7z
	 M201.1,37.9c0,5.3-2.6,7.8-7.5,7.8h-9.9V21.6h10.7c4.9,0,6.7,2.8,6.7,7.1V37.9z M223.4,95v-5.5c-2.4-2.1-3.7-4.9-3.7-9V66.2
	c0-6.1-3.8-12.6-11.7-14.5c7.9-2.1,11.3-7.5,11.3-14.6v-9.5c0-12.6-8.6-20.8-22.8-20.8h-31.6v87.7h18.8V58.7h10.1
	c5.4,0,7.8,4,7.8,8.6v14.4c0,8.2,2.9,13.4,10.5,13.4h11.3V95z"/>
<path class="st0" d="M92.8,23.3v29.5H75V23.3H59.7v71.2H75V66h17.8v28.6h15.3V23.3H92.8z M118.4,23.3v71.2H158V81.1h-24.4V63.3h16.8 V51.7h-16.8V36.1H158V23.3H118.4z M4.3,6.8v16.1h19v71.6h18.8V22.9h18.8V6.8H4.3z"/>
<g>
	<path class="st0" d="M154.8,121.7h-4v-17.1h7.2c1.5,0,3.1,0,4.4,0.9c1.4,0.9,2.2,2.6,2.2,4.3c0,1.9-1.1,3.7-3,4.4l3.2,7.6h-4.4
		l-2.6-6.8h-2.9V121.7z M154.8,111.9h2.2c0.8,0,1.7,0.1,2.4-0.4c0.6-0.4,1-1.2,1-1.9c0-0.7-0.4-1.4-1-1.7c-0.7-0.4-1.8-0.3-2.6-0.3
		h-2.1V111.9z"/>
	<path class="st0" d="M172,107.8v3.5h6.5v3.2H172v3.8h8.2v3.3H168v-17.1h12.2v3.3H172z"/>
	<path class="st0" d="M197.4,121.7H193l-1-3.5h-5.5l-1.1,3.5h-3.5l5.5-17.1h4.6L197.4,121.7z M191.1,115l-1.8-6l-1.8,6H191.1z"/>
	<path class="st0" d="M210.8,118.3v3.4h-10.9v-17.1h4v13.7H210.8z"/>
	<path class="st0" d="M225.5,107.8v3.5h6.5v3.2h-6.5v3.8h8.2v3.3h-12.2v-17.1h12.2v3.3H225.5z"/>
	<path class="st0" d="M245.4,109.4c-0.5-1.4-1.4-2-2.9-2c-1.1,0-2.4,0.3-2.4,1.6c0,1.2,1.5,1.5,2.5,1.7c1.4,0.3,3.3,0.6,4.5,1.4
		c1.4,0.9,2.2,2.3,2.2,4c0,1.7-0.8,3.3-2.1,4.3c-1.4,1.1-3.2,1.4-5,1.4c-3.2,0-6.1-1.4-6.9-4.7l3.7-0.8c0.5,1.8,1.8,2.4,3.6,2.4
		c1.1,0,2.7-0.4,2.7-1.8s-1.9-1.7-3-1.9c-3-0.6-6-1.5-6-5.3c0-1.6,0.6-3,1.8-4c1.2-1,2.7-1.4,4.3-1.4c3,0,5.4,1,6.5,4L245.4,109.4z"
		/>
	<path class="st0" d="M263.9,107.9h-4.3v13.7h-4v-13.7h-4.3v-3.4h12.6V107.9z"/>
	<path class="st0" d="M279.2,121.7h-4.3l-1-3.5h-5.5l-1.1,3.5h-3.5l5.5-17.1h4.6L279.2,121.7z M272.9,115l-1.8-6l-1.8,6H272.9z"/>
	<path class="st0" d="M291.7,107.9h-4.3v13.7h-4v-13.7H279v-3.4h12.6V107.9z"/>
	<path class="st0" d="M298.5,107.8v3.5h6.5v3.2h-6.5v3.8h8.2v3.3h-12.2v-17.1h12.2v3.3H298.5z"/>
	<path class="st0" d="M331.2,121.7h-3.4l-6.6-11.5h-0.1v11.5H318v-17.1h4.3l5.7,10.1h0v-10.1h3.1V121.7z"/>
	<path class="st0" d="M339.2,107.8v3.5h6.5v3.2h-6.5v3.8h8.2v3.3h-12.2v-17.1h12.2v3.3H339.2z"/>
	<path class="st0" d="M366.8,121.7h-3.9l-2.8-11.3h0l-2.7,11.3h-3.9l-4.4-17.1h4.1l2.6,11.5h0l2.8-11.5h3.7l2.9,11.5h0l0.2-0.8
		l2.5-10.8h3.3L366.8,121.7z"/>
	<path class="st0" d="M382.4,109.4c-0.5-1.4-1.4-2-2.9-2c-1.1,0-2.4,0.3-2.4,1.6c0,1.2,1.5,1.5,2.5,1.7c1.4,0.3,3.3,0.6,4.5,1.4
		c1.4,0.9,2.2,2.3,2.2,4c0,1.7-0.8,3.3-2.1,4.3c-1.4,1.1-3.2,1.4-5,1.4c-3.2,0-6.1-1.4-6.9-4.7l3.7-0.8c0.5,1.8,1.8,2.4,3.6,2.4
		c1.1,0,2.7-0.4,2.7-1.8s-1.9-1.7-3-1.9c-3-0.6-6-1.5-6-5.3c0-1.6,0.6-3,1.8-4c1.2-1,2.7-1.4,4.3-1.4c3,0,5.4,1,6.5,4L382.4,109.4z"
		/>
</g>
</svg>
